<?xml version="1.0" encoding="UTF-8"?>
<svg xmlns="http://www.w3.org/2000/svg" viewBox="0 0 1200 630" width="1200" height="630">
  <defs>
    <linearGradient id="bg" x1="0%" y1="0%" x2="100%" y2="100%" gradientTransform="rotate(10)">
      <stop offset="0%" stop-color="#0A0820"/>
      <stop offset="55%" stop-color="#1A1A3A"/>
      <stop offset="100%" stop-color="#11103A"/>
    </linearGradient>
    <radialGradient id="glowA" cx="20%" cy="0%" r="60%">
      <stop offset="0%" stop-color="#ED2EBA" stop-opacity="0.45"/>
      <stop offset="100%" stop-color="#ED2EBA" stop-opacity="0"/>
    </radialGradient>
    <radialGradient id="glowB" cx="100%" cy="100%" r="60%">
      <stop offset="0%" stop-color="#8E3DEF" stop-opacity="0.4"/>
      <stop offset="100%" stop-color="#8E3DEF" stop-opacity="0"/>
    </radialGradient>
  </defs>

  <rect width="100%" height="100%" fill="url(#bg)"/>
  <rect width="100%" height="100%" fill="url(#glowA)"/>
  <rect width="100%" height="100%" fill="url(#glowB)"/>

  <!-- Stars -->
  <g fill="#F5EFEF">
    <circle cx="746" cy="514" r="0.48" opacity="0.30"/><circle cx="1045" cy="400" r="1.59" opacity="0.35"/><circle cx="513" cy="223" r="0.53" opacity="0.60"/><circle cx="1174" cy="554" r="0.68" opacity="0.68"/><circle cx="786" cy="529" r="0.55" opacity="0.75"/><circle cx="724" cy="91" r="1.06" opacity="0.48"/><circle cx="61" cy="545" r="0.80" opacity="0.54"/><circle cx="45" cy="214" r="0.40" opacity="0.33"/><circle cx="919" cy="591" r="1.56" opacity="0.44"/><circle cx="1137" cy="51" r="1.14" opacity="0.39"/><circle cx="1087" cy="495" r="1.56" opacity="0.40"/><circle cx="193" cy="262" r="0.46" opacity="0.74"/><circle cx="775" cy="296" r="0.41" opacity="0.32"/><circle cx="544" cy="556" r="0.76" opacity="0.58"/><circle cx="509" cy="317" r="1.15" opacity="0.54"/><circle cx="510" cy="198" r="1.55" opacity="0.58"/><circle cx="272" cy="206" r="0.83" opacity="0.20"/><circle cx="1006" cy="397" r="1.17" opacity="0.21"/><circle cx="1048" cy="500" r="1.22" opacity="0.57"/><circle cx="804" cy="121" r="1.10" opacity="0.28"/><circle cx="1026" cy="66" r="1.22" opacity="0.58"/><circle cx="429" cy="143" r="1.19" opacity="0.36"/><circle cx="850" cy="463" r="1.48" opacity="0.24"/><circle cx="1136" cy="510" r="1.22" opacity="0.37"/><circle cx="907" cy="297" r="1.43" opacity="0.37"/><circle cx="405" cy="20" r="1.52" opacity="0.78"/><circle cx="38" cy="214" r="0.47" opacity="0.62"/><circle cx="737" cy="327" r="1.33" opacity="0.53"/><circle cx="1011" cy="282" r="0.55" opacity="0.35"/><circle cx="665" cy="375" r="1.19" opacity="0.46"/><circle cx="276" cy="581" r="0.55" opacity="0.20"/><circle cx="293" cy="53" r="1.53" opacity="0.47"/><circle cx="538" cy="189" r="1.12" opacity="0.29"/><circle cx="154" cy="123" r="1.33" opacity="0.39"/><circle cx="946" cy="116" r="1.30" opacity="0.70"/><circle cx="639" cy="145" r="0.82" opacity="0.80"/><circle cx="609" cy="577" r="1.60" opacity="0.31"/><circle cx="968" cy="244" r="1.30" opacity="0.56"/><circle cx="25" cy="254" r="0.45" opacity="0.49"/><circle cx="468" cy="176" r="0.51" opacity="0.30"/><circle cx="339" cy="447" r="0.66" opacity="0.28"/><circle cx="1150" cy="348" r="0.92" opacity="0.53"/><circle cx="84" cy="383" r="1.55" opacity="0.67"/><circle cx="911" cy="433" r="1.32" opacity="0.44"/><circle cx="1" cy="563" r="0.76" opacity="0.79"/><circle cx="258" cy="502" r="1.28" opacity="0.64"/><circle cx="870" cy="367" r="1.51" opacity="0.76"/><circle cx="1176" cy="150" r="1.51" opacity="0.56"/><circle cx="368" cy="134" r="0.83" opacity="0.58"/><circle cx="448" cy="436" r="0.68" opacity="0.22"/><circle cx="612" cy="32" r="1.31" opacity="0.76"/><circle cx="948" cy="254" r="0.59" opacity="0.68"/><circle cx="974" cy="302" r="1.53" opacity="0.37"/><circle cx="920" cy="111" r="1.42" opacity="0.47"/><circle cx="282" cy="305" r="1.19" opacity="0.61"/><circle cx="927" cy="327" r="1.52" opacity="0.21"/><circle cx="982" cy="307" r="1.38" opacity="0.44"/><circle cx="528" cy="60" r="1.11" opacity="0.68"/><circle cx="426" cy="529" r="0.99" opacity="0.74"/><circle cx="220" cy="495" r="1.29" opacity="0.38"/>
  </g>

  <!-- Edition label -->
  <text x="60" y="80" font-family="'Geist Mono', ui-monospace, monospace" font-size="20" letter-spacing="4" fill="#C9BCC4" text-transform="uppercase">GYANESH ON PRODUCT · #32</text>

  <!-- Title block -->
  <text x="60" y="297.3333333333333" font-family="'Instrument Serif', 'Iowan Old Style', 'Palatino Linotype', 'Times New Roman', serif" font-style="italic" font-weight="400" font-size="64" fill="#F5EFEF">Behavioural Science 101 : The 3B</text><text x="60" y="375.3333333333333" font-family="'Instrument Serif', 'Iowan Old Style', 'Palatino Linotype', 'Times New Roman', serif" font-style="italic" font-weight="400" font-size="64" fill="#F5EFEF">Framework</text>

  <!-- Date footer -->
  <text x="60" y="570" font-family="'Geist Mono', ui-monospace, monospace" font-size="20" letter-spacing="4" fill="#828397">MAR 24, 2024</text>

  <!-- Brand mark -->
  <text x="1140" y="570" text-anchor="end" font-family="'Geist Mono', ui-monospace, monospace" font-size="20" letter-spacing="4" fill="#828397">GYANESH.S</text>

  <!-- Bottom-right brand line -->
  <line x1="1000" y1="590" x2="1140" y2="590" stroke="#ED2EBA" stroke-width="2"/>
</svg>