<?xml version="1.0" encoding="UTF-8"?>
<svg xmlns="http://www.w3.org/2000/svg" viewBox="0 0 1200 630" width="1200" height="630">
  <defs>
    <linearGradient id="bg" x1="0%" y1="0%" x2="100%" y2="100%" gradientTransform="rotate(11)">
      <stop offset="0%" stop-color="#0A0820"/>
      <stop offset="55%" stop-color="#1A1A3A"/>
      <stop offset="100%" stop-color="#11103A"/>
    </linearGradient>
    <radialGradient id="glowA" cx="20%" cy="0%" r="60%">
      <stop offset="0%" stop-color="#ED2EBA" stop-opacity="0.45"/>
      <stop offset="100%" stop-color="#ED2EBA" stop-opacity="0"/>
    </radialGradient>
    <radialGradient id="glowB" cx="100%" cy="100%" r="60%">
      <stop offset="0%" stop-color="#8E3DEF" stop-opacity="0.4"/>
      <stop offset="100%" stop-color="#8E3DEF" stop-opacity="0"/>
    </radialGradient>
  </defs>

  <rect width="100%" height="100%" fill="url(#bg)"/>
  <rect width="100%" height="100%" fill="url(#glowA)"/>
  <rect width="100%" height="100%" fill="url(#glowB)"/>

  <!-- Stars -->
  <g fill="#F5EFEF">
    <circle cx="797" cy="213" r="0.63" opacity="0.39"/><circle cx="1181" cy="546" r="1.22" opacity="0.29"/><circle cx="710" cy="476" r="0.75" opacity="0.80"/><circle cx="55" cy="218" r="1.40" opacity="0.59"/><circle cx="1045" cy="526" r="1.02" opacity="0.27"/><circle cx="711" cy="427" r="0.86" opacity="0.59"/><circle cx="526" cy="102" r="1.06" opacity="0.73"/><circle cx="767" cy="309" r="1.18" opacity="0.51"/><circle cx="751" cy="96" r="0.75" opacity="0.24"/><circle cx="1050" cy="195" r="1.49" opacity="0.63"/><circle cx="612" cy="438" r="0.65" opacity="0.34"/><circle cx="285" cy="601" r="1.28" opacity="0.33"/><circle cx="974" cy="269" r="1.33" opacity="0.79"/><circle cx="822" cy="494" r="0.98" opacity="0.64"/><circle cx="305" cy="400" r="0.52" opacity="0.37"/><circle cx="600" cy="461" r="0.90" opacity="0.33"/><circle cx="118" cy="119" r="0.61" opacity="0.25"/><circle cx="833" cy="230" r="1.44" opacity="0.46"/><circle cx="819" cy="387" r="0.79" opacity="0.70"/><circle cx="921" cy="410" r="1.28" opacity="0.38"/><circle cx="1037" cy="124" r="0.92" opacity="0.36"/><circle cx="29" cy="66" r="1.09" opacity="0.68"/><circle cx="891" cy="162" r="0.47" opacity="0.79"/><circle cx="725" cy="349" r="1.24" opacity="0.44"/><circle cx="1101" cy="555" r="0.44" opacity="0.68"/><circle cx="630" cy="529" r="1.20" opacity="0.54"/><circle cx="147" cy="347" r="0.60" opacity="0.62"/><circle cx="637" cy="420" r="0.61" opacity="0.38"/><circle cx="590" cy="274" r="1.34" opacity="0.48"/><circle cx="597" cy="529" r="0.54" opacity="0.31"/><circle cx="867" cy="467" r="1.28" opacity="0.70"/><circle cx="239" cy="485" r="1.18" opacity="0.76"/><circle cx="855" cy="402" r="0.68" opacity="0.24"/><circle cx="622" cy="442" r="0.43" opacity="0.47"/><circle cx="875" cy="559" r="1.23" opacity="0.42"/><circle cx="915" cy="190" r="0.40" opacity="0.34"/><circle cx="375" cy="194" r="1.48" opacity="0.52"/><circle cx="188" cy="625" r="0.96" opacity="0.51"/><circle cx="971" cy="199" r="1.58" opacity="0.61"/><circle cx="1047" cy="334" r="0.41" opacity="0.40"/><circle cx="550" cy="76" r="0.75" opacity="0.59"/><circle cx="200" cy="158" r="0.85" opacity="0.46"/><circle cx="1107" cy="105" r="1.48" opacity="0.50"/><circle cx="1034" cy="181" r="1.32" opacity="0.72"/><circle cx="237" cy="610" r="0.85" opacity="0.80"/><circle cx="795" cy="566" r="0.78" opacity="0.32"/><circle cx="1152" cy="183" r="1.38" opacity="0.60"/><circle cx="450" cy="92" r="0.59" opacity="0.72"/><circle cx="342" cy="152" r="1.38" opacity="0.32"/><circle cx="910" cy="603" r="1.21" opacity="0.73"/><circle cx="451" cy="169" r="1.24" opacity="0.75"/><circle cx="566" cy="325" r="0.42" opacity="0.53"/><circle cx="321" cy="285" r="0.71" opacity="0.52"/><circle cx="568" cy="265" r="1.22" opacity="0.51"/><circle cx="234" cy="79" r="0.75" opacity="0.77"/><circle cx="80" cy="228" r="0.59" opacity="0.25"/><circle cx="254" cy="329" r="0.72" opacity="0.43"/><circle cx="232" cy="621" r="0.76" opacity="0.49"/><circle cx="1100" cy="436" r="0.92" opacity="0.59"/><circle cx="39" cy="538" r="1.14" opacity="0.21"/>
  </g>

  <!-- Edition label -->
  <text x="60" y="80" font-family="'Geist Mono', ui-monospace, monospace" font-size="20" letter-spacing="4" fill="#C9BCC4" text-transform="uppercase">GYANESH ON PRODUCT · #29</text>

  <!-- Title block -->
  <text x="60" y="297.3333333333333" font-family="'Instrument Serif', 'Iowan Old Style', 'Palatino Linotype', 'Times New Roman', serif" font-style="italic" font-weight="400" font-size="64" fill="#F5EFEF">Digital Marketing: Bids &amp;</text><text x="60" y="375.3333333333333" font-family="'Instrument Serif', 'Iowan Old Style', 'Palatino Linotype', 'Times New Roman', serif" font-style="italic" font-weight="400" font-size="64" fill="#F5EFEF">Strategising Campaigns</text>

  <!-- Date footer -->
  <text x="60" y="570" font-family="'Geist Mono', ui-monospace, monospace" font-size="20" letter-spacing="4" fill="#828397">OCT 25, 2024</text>

  <!-- Brand mark -->
  <text x="1140" y="570" text-anchor="end" font-family="'Geist Mono', ui-monospace, monospace" font-size="20" letter-spacing="4" fill="#828397">GYANESH.S</text>

  <!-- Bottom-right brand line -->
  <line x1="1000" y1="590" x2="1140" y2="590" stroke="#ED2EBA" stroke-width="2"/>
</svg>