<?xml version="1.0" encoding="UTF-8"?>
<svg xmlns="http://www.w3.org/2000/svg" viewBox="0 0 1200 630" width="1200" height="630">
  <defs>
    <linearGradient id="bg" x1="0%" y1="0%" x2="100%" y2="100%" gradientTransform="rotate(28)">
      <stop offset="0%" stop-color="#0A0820"/>
      <stop offset="55%" stop-color="#1A1A3A"/>
      <stop offset="100%" stop-color="#11103A"/>
    </linearGradient>
    <radialGradient id="glowA" cx="20%" cy="0%" r="60%">
      <stop offset="0%" stop-color="#ED2EBA" stop-opacity="0.45"/>
      <stop offset="100%" stop-color="#ED2EBA" stop-opacity="0"/>
    </radialGradient>
    <radialGradient id="glowB" cx="100%" cy="100%" r="60%">
      <stop offset="0%" stop-color="#8E3DEF" stop-opacity="0.4"/>
      <stop offset="100%" stop-color="#8E3DEF" stop-opacity="0"/>
    </radialGradient>
  </defs>

  <rect width="100%" height="100%" fill="url(#bg)"/>
  <rect width="100%" height="100%" fill="url(#glowA)"/>
  <rect width="100%" height="100%" fill="url(#glowB)"/>

  <!-- Stars -->
  <g fill="#F5EFEF">
    <circle cx="1080" cy="134" r="0.86" opacity="0.71"/><circle cx="517" cy="551" r="1.36" opacity="0.70"/><circle cx="1196" cy="274" r="1.17" opacity="0.21"/><circle cx="1171" cy="293" r="1.42" opacity="0.52"/><circle cx="510" cy="519" r="0.55" opacity="0.51"/><circle cx="352" cy="224" r="0.64" opacity="0.64"/><circle cx="1102" cy="472" r="0.67" opacity="0.46"/><circle cx="266" cy="103" r="1.14" opacity="0.74"/><circle cx="1147" cy="31" r="0.54" opacity="0.52"/><circle cx="494" cy="87" r="0.91" opacity="0.71"/><circle cx="937" cy="609" r="1.34" opacity="0.62"/><circle cx="132" cy="488" r="1.13" opacity="0.34"/><circle cx="821" cy="282" r="0.73" opacity="0.57"/><circle cx="596" cy="328" r="0.56" opacity="0.42"/><circle cx="1113" cy="164" r="1.22" opacity="0.41"/><circle cx="996" cy="539" r="1.13" opacity="0.80"/><circle cx="371" cy="181" r="1.13" opacity="0.67"/><circle cx="1162" cy="621" r="0.59" opacity="0.41"/><circle cx="420" cy="410" r="1.53" opacity="0.65"/><circle cx="1053" cy="182" r="1.47" opacity="0.66"/><circle cx="817" cy="172" r="1.04" opacity="0.77"/><circle cx="941" cy="355" r="0.79" opacity="0.30"/><circle cx="1148" cy="174" r="1.12" opacity="0.67"/><circle cx="1155" cy="119" r="1.33" opacity="0.24"/><circle cx="840" cy="229" r="0.40" opacity="0.22"/><circle cx="1062" cy="412" r="1.51" opacity="0.26"/><circle cx="691" cy="591" r="1.47" opacity="0.48"/><circle cx="447" cy="223" r="1.14" opacity="0.49"/><circle cx="391" cy="141" r="0.76" opacity="0.74"/><circle cx="350" cy="303" r="1.01" opacity="0.77"/><circle cx="1037" cy="121" r="0.94" opacity="0.42"/><circle cx="1171" cy="400" r="0.86" opacity="0.42"/><circle cx="250" cy="432" r="0.69" opacity="0.65"/><circle cx="452" cy="113" r="0.84" opacity="0.58"/><circle cx="804" cy="105" r="0.74" opacity="0.39"/><circle cx="804" cy="72" r="1.25" opacity="0.26"/><circle cx="283" cy="355" r="0.57" opacity="0.80"/><circle cx="50" cy="215" r="0.68" opacity="0.57"/><circle cx="1021" cy="240" r="0.81" opacity="0.34"/><circle cx="136" cy="406" r="0.49" opacity="0.50"/><circle cx="1074" cy="466" r="0.57" opacity="0.57"/><circle cx="980" cy="73" r="0.64" opacity="0.55"/><circle cx="551" cy="298" r="1.53" opacity="0.48"/><circle cx="545" cy="88" r="1.42" opacity="0.51"/><circle cx="1095" cy="164" r="0.58" opacity="0.63"/><circle cx="912" cy="352" r="0.85" opacity="0.49"/><circle cx="117" cy="179" r="1.48" opacity="0.49"/><circle cx="499" cy="292" r="1.47" opacity="0.33"/><circle cx="955" cy="387" r="1.34" opacity="0.33"/><circle cx="887" cy="344" r="0.97" opacity="0.61"/><circle cx="132" cy="550" r="1.20" opacity="0.78"/><circle cx="470" cy="220" r="0.52" opacity="0.42"/><circle cx="677" cy="395" r="0.41" opacity="0.27"/><circle cx="511" cy="552" r="1.45" opacity="0.39"/><circle cx="36" cy="430" r="1.60" opacity="0.65"/><circle cx="424" cy="310" r="1.45" opacity="0.61"/><circle cx="1111" cy="70" r="0.55" opacity="0.27"/><circle cx="571" cy="446" r="0.43" opacity="0.41"/><circle cx="48" cy="116" r="1.21" opacity="0.27"/><circle cx="1021" cy="227" r="1.09" opacity="0.59"/>
  </g>

  <!-- Edition label -->
  <text x="60" y="80" font-family="'Geist Mono', ui-monospace, monospace" font-size="20" letter-spacing="4" fill="#C9BCC4" text-transform="uppercase">GYANESH ON PRODUCT · #10</text>

  <!-- Title block -->
  <text x="60" y="297.3333333333333" font-family="'Instrument Serif', 'Iowan Old Style', 'Palatino Linotype', 'Times New Roman', serif" font-style="italic" font-weight="400" font-size="64" fill="#F5EFEF">Antigravity had* my heart &amp; I&apos;m</text><text x="60" y="375.3333333333333" font-family="'Instrument Serif', 'Iowan Old Style', 'Palatino Linotype', 'Times New Roman', serif" font-style="italic" font-weight="400" font-size="64" fill="#F5EFEF">gatekeeping it from you</text>

  <!-- Date footer -->
  <text x="60" y="570" font-family="'Geist Mono', ui-monospace, monospace" font-size="20" letter-spacing="4" fill="#828397">MAR 9, 2026</text>

  <!-- Brand mark -->
  <text x="1140" y="570" text-anchor="end" font-family="'Geist Mono', ui-monospace, monospace" font-size="20" letter-spacing="4" fill="#828397">GYANESH.S</text>

  <!-- Bottom-right brand line -->
  <line x1="1000" y1="590" x2="1140" y2="590" stroke="#ED2EBA" stroke-width="2"/>
</svg>