<?xml version="1.0" encoding="UTF-8"?>
<svg xmlns="http://www.w3.org/2000/svg" viewBox="0 0 1200 630" width="1200" height="630">
  <defs>
    <linearGradient id="bg" x1="0%" y1="0%" x2="100%" y2="100%" gradientTransform="rotate(53)">
      <stop offset="0%" stop-color="#0A0820"/>
      <stop offset="55%" stop-color="#1A1A3A"/>
      <stop offset="100%" stop-color="#11103A"/>
    </linearGradient>
    <radialGradient id="glowA" cx="20%" cy="0%" r="60%">
      <stop offset="0%" stop-color="#ED2EBA" stop-opacity="0.45"/>
      <stop offset="100%" stop-color="#ED2EBA" stop-opacity="0"/>
    </radialGradient>
    <radialGradient id="glowB" cx="100%" cy="100%" r="60%">
      <stop offset="0%" stop-color="#8E3DEF" stop-opacity="0.4"/>
      <stop offset="100%" stop-color="#8E3DEF" stop-opacity="0"/>
    </radialGradient>
  </defs>

  <rect width="100%" height="100%" fill="url(#bg)"/>
  <rect width="100%" height="100%" fill="url(#glowA)"/>
  <rect width="100%" height="100%" fill="url(#glowB)"/>

  <!-- Stars -->
  <g fill="#F5EFEF">
    <circle cx="122" cy="121" r="0.44" opacity="0.80"/><circle cx="377" cy="386" r="1.26" opacity="0.67"/><circle cx="267" cy="511" r="1.13" opacity="0.21"/><circle cx="698" cy="580" r="0.67" opacity="0.80"/><circle cx="911" cy="492" r="0.51" opacity="0.38"/><circle cx="477" cy="492" r="0.63" opacity="0.20"/><circle cx="330" cy="209" r="0.99" opacity="0.60"/><circle cx="149" cy="580" r="0.70" opacity="0.63"/><circle cx="838" cy="506" r="0.66" opacity="0.22"/><circle cx="14" cy="102" r="0.69" opacity="0.28"/><circle cx="407" cy="481" r="0.98" opacity="0.77"/><circle cx="520" cy="78" r="1.23" opacity="0.69"/><circle cx="755" cy="24" r="1.23" opacity="0.47"/><circle cx="52" cy="359" r="0.79" opacity="0.54"/><circle cx="716" cy="288" r="0.48" opacity="0.42"/><circle cx="1107" cy="125" r="1.17" opacity="0.64"/><circle cx="1043" cy="41" r="1.34" opacity="0.45"/><circle cx="661" cy="172" r="0.44" opacity="0.41"/><circle cx="292" cy="152" r="0.85" opacity="0.30"/><circle cx="815" cy="428" r="0.72" opacity="0.28"/><circle cx="396" cy="223" r="0.92" opacity="0.80"/><circle cx="41" cy="403" r="0.74" opacity="0.44"/><circle cx="359" cy="385" r="0.55" opacity="0.25"/><circle cx="767" cy="150" r="1.30" opacity="0.45"/><circle cx="414" cy="510" r="0.99" opacity="0.22"/><circle cx="300" cy="310" r="0.42" opacity="0.51"/><circle cx="1173" cy="342" r="1.11" opacity="0.30"/><circle cx="270" cy="265" r="1.56" opacity="0.28"/><circle cx="801" cy="488" r="0.90" opacity="0.78"/><circle cx="482" cy="417" r="1.35" opacity="0.58"/><circle cx="384" cy="312" r="0.81" opacity="0.36"/><circle cx="416" cy="57" r="1.19" opacity="0.49"/><circle cx="235" cy="590" r="0.52" opacity="0.30"/><circle cx="267" cy="388" r="0.95" opacity="0.30"/><circle cx="1000" cy="28" r="1.23" opacity="0.27"/><circle cx="810" cy="217" r="1.45" opacity="0.44"/><circle cx="625" cy="34" r="1.53" opacity="0.44"/><circle cx="409" cy="293" r="0.43" opacity="0.72"/><circle cx="40" cy="497" r="0.93" opacity="0.64"/><circle cx="769" cy="264" r="0.60" opacity="0.65"/><circle cx="454" cy="32" r="1.33" opacity="0.49"/><circle cx="16" cy="377" r="0.47" opacity="0.36"/><circle cx="534" cy="58" r="0.55" opacity="0.59"/><circle cx="303" cy="208" r="1.42" opacity="0.78"/><circle cx="456" cy="582" r="1.03" opacity="0.31"/><circle cx="1008" cy="82" r="0.65" opacity="0.46"/><circle cx="1161" cy="153" r="1.54" opacity="0.24"/><circle cx="660" cy="604" r="1.32" opacity="0.27"/><circle cx="665" cy="235" r="0.89" opacity="0.26"/><circle cx="1152" cy="119" r="0.66" opacity="0.70"/><circle cx="69" cy="67" r="0.55" opacity="0.50"/><circle cx="621" cy="263" r="1.31" opacity="0.59"/><circle cx="857" cy="284" r="1.53" opacity="0.47"/><circle cx="1145" cy="107" r="1.05" opacity="0.66"/><circle cx="105" cy="535" r="1.48" opacity="0.77"/><circle cx="750" cy="206" r="0.43" opacity="0.34"/><circle cx="1199" cy="349" r="1.54" opacity="0.54"/><circle cx="789" cy="15" r="1.20" opacity="0.63"/><circle cx="1075" cy="74" r="1.16" opacity="0.69"/><circle cx="668" cy="508" r="0.58" opacity="0.36"/>
  </g>

  <!-- Edition label -->
  <text x="60" y="80" font-family="'Geist Mono', ui-monospace, monospace" font-size="20" letter-spacing="4" fill="#C9BCC4" text-transform="uppercase">GYANESH ON PRODUCT · #09</text>

  <!-- Title block -->
  <text x="60" y="297.3333333333333" font-family="'Instrument Serif', 'Iowan Old Style', 'Palatino Linotype', 'Times New Roman', serif" font-style="italic" font-weight="400" font-size="64" fill="#F5EFEF">Designers and PMs should learn</text><text x="60" y="375.3333333333333" font-family="'Instrument Serif', 'Iowan Old Style', 'Palatino Linotype', 'Times New Roman', serif" font-style="italic" font-weight="400" font-size="64" fill="#F5EFEF">to spec code over vibe coding.</text>

  <!-- Date footer -->
  <text x="60" y="570" font-family="'Geist Mono', ui-monospace, monospace" font-size="20" letter-spacing="4" fill="#828397">MAR 17, 2026</text>

  <!-- Brand mark -->
  <text x="1140" y="570" text-anchor="end" font-family="'Geist Mono', ui-monospace, monospace" font-size="20" letter-spacing="4" fill="#828397">GYANESH.S</text>

  <!-- Bottom-right brand line -->
  <line x1="1000" y1="590" x2="1140" y2="590" stroke="#ED2EBA" stroke-width="2"/>
</svg>