<?xml version="1.0" encoding="UTF-8"?>
<svg xmlns="http://www.w3.org/2000/svg" viewBox="0 0 1200 630" width="1200" height="630">
  <defs>
    <linearGradient id="bg" x1="0%" y1="0%" x2="100%" y2="100%" gradientTransform="rotate(36)">
      <stop offset="0%" stop-color="#0A0820"/>
      <stop offset="55%" stop-color="#1A1A3A"/>
      <stop offset="100%" stop-color="#11103A"/>
    </linearGradient>
    <radialGradient id="glowA" cx="20%" cy="0%" r="60%">
      <stop offset="0%" stop-color="#ED2EBA" stop-opacity="0.45"/>
      <stop offset="100%" stop-color="#ED2EBA" stop-opacity="0"/>
    </radialGradient>
    <radialGradient id="glowB" cx="100%" cy="100%" r="60%">
      <stop offset="0%" stop-color="#8E3DEF" stop-opacity="0.4"/>
      <stop offset="100%" stop-color="#8E3DEF" stop-opacity="0"/>
    </radialGradient>
  </defs>

  <rect width="100%" height="100%" fill="url(#bg)"/>
  <rect width="100%" height="100%" fill="url(#glowA)"/>
  <rect width="100%" height="100%" fill="url(#glowB)"/>

  <!-- Stars -->
  <g fill="#F5EFEF">
    <circle cx="641" cy="196" r="1.55" opacity="0.46"/><circle cx="324" cy="607" r="1.54" opacity="0.44"/><circle cx="658" cy="287" r="0.98" opacity="0.44"/><circle cx="285" cy="66" r="0.90" opacity="0.62"/><circle cx="255" cy="578" r="0.86" opacity="0.48"/><circle cx="860" cy="87" r="1.57" opacity="0.27"/><circle cx="406" cy="38" r="1.43" opacity="0.28"/><circle cx="730" cy="410" r="0.42" opacity="0.71"/><circle cx="284" cy="126" r="1.23" opacity="0.47"/><circle cx="687" cy="480" r="1.48" opacity="0.72"/><circle cx="903" cy="464" r="1.06" opacity="0.71"/><circle cx="22" cy="304" r="1.30" opacity="0.54"/><circle cx="699" cy="71" r="1.02" opacity="0.60"/><circle cx="545" cy="168" r="0.66" opacity="0.38"/><circle cx="798" cy="600" r="0.89" opacity="0.22"/><circle cx="150" cy="584" r="1.09" opacity="0.70"/><circle cx="159" cy="416" r="1.43" opacity="0.66"/><circle cx="867" cy="452" r="1.40" opacity="0.38"/><circle cx="95" cy="408" r="1.46" opacity="0.75"/><circle cx="897" cy="507" r="0.94" opacity="0.37"/><circle cx="816" cy="179" r="1.39" opacity="0.37"/><circle cx="1136" cy="508" r="1.21" opacity="0.55"/><circle cx="387" cy="202" r="0.78" opacity="0.55"/><circle cx="922" cy="329" r="0.88" opacity="0.60"/><circle cx="123" cy="529" r="1.48" opacity="0.37"/><circle cx="1180" cy="21" r="0.47" opacity="0.23"/><circle cx="151" cy="479" r="0.61" opacity="0.29"/><circle cx="928" cy="98" r="0.80" opacity="0.42"/><circle cx="991" cy="215" r="0.97" opacity="0.74"/><circle cx="205" cy="336" r="1.05" opacity="0.78"/><circle cx="427" cy="142" r="0.49" opacity="0.31"/><circle cx="938" cy="405" r="0.72" opacity="0.74"/><circle cx="0" cy="370" r="0.69" opacity="0.51"/><circle cx="167" cy="328" r="0.79" opacity="0.62"/><circle cx="347" cy="624" r="0.79" opacity="0.50"/><circle cx="70" cy="545" r="0.40" opacity="0.74"/><circle cx="165" cy="506" r="1.36" opacity="0.45"/><circle cx="537" cy="187" r="1.41" opacity="0.73"/><circle cx="617" cy="559" r="0.88" opacity="0.37"/><circle cx="903" cy="68" r="1.56" opacity="0.63"/><circle cx="136" cy="346" r="0.76" opacity="0.22"/><circle cx="268" cy="155" r="0.71" opacity="0.73"/><circle cx="366" cy="257" r="1.57" opacity="0.72"/><circle cx="429" cy="553" r="0.66" opacity="0.25"/><circle cx="526" cy="51" r="1.50" opacity="0.63"/><circle cx="631" cy="67" r="0.83" opacity="0.59"/><circle cx="1063" cy="147" r="1.27" opacity="0.58"/><circle cx="75" cy="394" r="1.45" opacity="0.64"/><circle cx="198" cy="106" r="1.27" opacity="0.66"/><circle cx="192" cy="558" r="1.51" opacity="0.35"/><circle cx="1174" cy="97" r="1.17" opacity="0.35"/><circle cx="813" cy="416" r="1.03" opacity="0.60"/><circle cx="1068" cy="179" r="0.52" opacity="0.22"/><circle cx="163" cy="137" r="0.91" opacity="0.43"/><circle cx="752" cy="560" r="0.97" opacity="0.41"/><circle cx="1176" cy="323" r="1.60" opacity="0.46"/><circle cx="144" cy="602" r="1.01" opacity="0.78"/><circle cx="906" cy="403" r="0.51" opacity="0.28"/><circle cx="220" cy="277" r="1.03" opacity="0.32"/><circle cx="1093" cy="243" r="1.51" opacity="0.30"/>
  </g>

  <!-- Edition label -->
  <text x="60" y="80" font-family="'Geist Mono', ui-monospace, monospace" font-size="20" letter-spacing="4" fill="#C9BCC4" text-transform="uppercase">GYANESH ON PRODUCT · #03</text>

  <!-- Title block -->
  <text x="60" y="297.3333333333333" font-family="'Instrument Serif', 'Iowan Old Style', 'Palatino Linotype', 'Times New Roman', serif" font-style="italic" font-weight="400" font-size="64" fill="#F5EFEF">Benchmarks didn&apos;t ship. Atleast</text><text x="60" y="375.3333333333333" font-family="'Instrument Serif', 'Iowan Old Style', 'Palatino Linotype', 'Times New Roman', serif" font-style="italic" font-weight="400" font-size="64" fill="#F5EFEF">not for Sarvam.</text>

  <!-- Date footer -->
  <text x="60" y="570" font-family="'Geist Mono', ui-monospace, monospace" font-size="20" letter-spacing="4" fill="#828397">APR 25, 2026</text>

  <!-- Brand mark -->
  <text x="1140" y="570" text-anchor="end" font-family="'Geist Mono', ui-monospace, monospace" font-size="20" letter-spacing="4" fill="#828397">GYANESH.S</text>

  <!-- Bottom-right brand line -->
  <line x1="1000" y1="590" x2="1140" y2="590" stroke="#ED2EBA" stroke-width="2"/>
</svg>