<?xml version="1.0" encoding="UTF-8"?>
<svg xmlns="http://www.w3.org/2000/svg" viewBox="0 0 1200 630" width="1200" height="630">
  <defs>
    <linearGradient id="bg" x1="0%" y1="0%" x2="100%" y2="100%" gradientTransform="rotate(7)">
      <stop offset="0%" stop-color="#0A0820"/>
      <stop offset="55%" stop-color="#1A1A3A"/>
      <stop offset="100%" stop-color="#11103A"/>
    </linearGradient>
    <radialGradient id="glowA" cx="20%" cy="0%" r="60%">
      <stop offset="0%" stop-color="#ED2EBA" stop-opacity="0.45"/>
      <stop offset="100%" stop-color="#ED2EBA" stop-opacity="0"/>
    </radialGradient>
    <radialGradient id="glowB" cx="100%" cy="100%" r="60%">
      <stop offset="0%" stop-color="#8E3DEF" stop-opacity="0.4"/>
      <stop offset="100%" stop-color="#8E3DEF" stop-opacity="0"/>
    </radialGradient>
  </defs>

  <rect width="100%" height="100%" fill="url(#bg)"/>
  <rect width="100%" height="100%" fill="url(#glowA)"/>
  <rect width="100%" height="100%" fill="url(#glowB)"/>

  <!-- Stars -->
  <g fill="#F5EFEF">
    <circle cx="680" cy="332" r="1.01" opacity="0.60"/><circle cx="744" cy="148" r="1.44" opacity="0.65"/><circle cx="404" cy="577" r="0.63" opacity="0.45"/><circle cx="1031" cy="375" r="1.52" opacity="0.23"/><circle cx="190" cy="369" r="0.75" opacity="0.69"/><circle cx="1113" cy="256" r="0.63" opacity="0.21"/><circle cx="663" cy="346" r="1.47" opacity="0.30"/><circle cx="538" cy="431" r="1.50" opacity="0.73"/><circle cx="484" cy="484" r="0.62" opacity="0.52"/><circle cx="301" cy="498" r="1.38" opacity="0.26"/><circle cx="293" cy="129" r="1.30" opacity="0.34"/><circle cx="834" cy="379" r="0.56" opacity="0.49"/><circle cx="877" cy="291" r="0.42" opacity="0.69"/><circle cx="117" cy="188" r="0.45" opacity="0.34"/><circle cx="239" cy="517" r="1.00" opacity="0.80"/><circle cx="730" cy="512" r="0.99" opacity="0.44"/><circle cx="1029" cy="51" r="0.63" opacity="0.73"/><circle cx="113" cy="159" r="0.96" opacity="0.56"/><circle cx="1078" cy="198" r="1.55" opacity="0.31"/><circle cx="772" cy="212" r="1.02" opacity="0.32"/><circle cx="827" cy="501" r="1.32" opacity="0.73"/><circle cx="977" cy="71" r="0.56" opacity="0.59"/><circle cx="293" cy="81" r="1.59" opacity="0.52"/><circle cx="939" cy="238" r="0.99" opacity="0.47"/><circle cx="280" cy="620" r="0.73" opacity="0.42"/><circle cx="268" cy="77" r="1.05" opacity="0.62"/><circle cx="773" cy="606" r="0.95" opacity="0.77"/><circle cx="110" cy="204" r="0.52" opacity="0.53"/><circle cx="392" cy="33" r="1.28" opacity="0.71"/><circle cx="59" cy="588" r="1.05" opacity="0.40"/><circle cx="567" cy="598" r="0.74" opacity="0.35"/><circle cx="87" cy="17" r="1.25" opacity="0.38"/><circle cx="537" cy="157" r="0.82" opacity="0.30"/><circle cx="172" cy="100" r="0.52" opacity="0.67"/><circle cx="849" cy="302" r="1.36" opacity="0.23"/><circle cx="263" cy="442" r="0.54" opacity="0.55"/><circle cx="219" cy="250" r="1.16" opacity="0.76"/><circle cx="683" cy="291" r="1.23" opacity="0.27"/><circle cx="454" cy="124" r="0.61" opacity="0.28"/><circle cx="123" cy="587" r="0.76" opacity="0.50"/><circle cx="474" cy="48" r="1.08" opacity="0.27"/><circle cx="621" cy="404" r="1.50" opacity="0.46"/><circle cx="905" cy="170" r="0.89" opacity="0.60"/><circle cx="880" cy="194" r="1.12" opacity="0.30"/><circle cx="1044" cy="445" r="0.49" opacity="0.56"/><circle cx="360" cy="520" r="0.92" opacity="0.53"/><circle cx="842" cy="250" r="0.82" opacity="0.29"/><circle cx="678" cy="267" r="0.95" opacity="0.55"/><circle cx="1137" cy="407" r="0.82" opacity="0.75"/><circle cx="643" cy="177" r="1.07" opacity="0.52"/><circle cx="721" cy="448" r="1.12" opacity="0.31"/><circle cx="46" cy="608" r="0.76" opacity="0.76"/><circle cx="188" cy="62" r="1.05" opacity="0.29"/><circle cx="719" cy="258" r="1.54" opacity="0.41"/><circle cx="955" cy="491" r="1.31" opacity="0.73"/><circle cx="811" cy="623" r="1.40" opacity="0.50"/><circle cx="269" cy="301" r="1.15" opacity="0.53"/><circle cx="103" cy="423" r="1.09" opacity="0.35"/><circle cx="1040" cy="556" r="0.64" opacity="0.60"/><circle cx="957" cy="350" r="0.43" opacity="0.72"/>
  </g>

  <!-- Edition label -->
  <text x="60" y="80" font-family="'Geist Mono', ui-monospace, monospace" font-size="20" letter-spacing="4" fill="#C9BCC4" text-transform="uppercase">GYANESH ON PRODUCT · #02</text>

  <!-- Title block -->
  <text x="60" y="258.3333333333333" font-family="'Instrument Serif', 'Iowan Old Style', 'Palatino Linotype', 'Times New Roman', serif" font-style="italic" font-weight="400" font-size="64" fill="#F5EFEF">AI for Product vs AI for</text><text x="60" y="336.3333333333333" font-family="'Instrument Serif', 'Iowan Old Style', 'Palatino Linotype', 'Times New Roman', serif" font-style="italic" font-weight="400" font-size="64" fill="#F5EFEF">Analytics: Who Actually</text><text x="60" y="414.3333333333333" font-family="'Instrument Serif', 'Iowan Old Style', 'Palatino Linotype', 'Times New Roman', serif" font-style="italic" font-weight="400" font-size="64" fill="#F5EFEF">Benefits?</text>

  <!-- Date footer -->
  <text x="60" y="570" font-family="'Geist Mono', ui-monospace, monospace" font-size="20" letter-spacing="4" fill="#828397">MAY 2, 2026</text>

  <!-- Brand mark -->
  <text x="1140" y="570" text-anchor="end" font-family="'Geist Mono', ui-monospace, monospace" font-size="20" letter-spacing="4" fill="#828397">GYANESH.S</text>

  <!-- Bottom-right brand line -->
  <line x1="1000" y1="590" x2="1140" y2="590" stroke="#ED2EBA" stroke-width="2"/>
</svg>