<?xml version="1.0" encoding="UTF-8"?>
<svg xmlns="http://www.w3.org/2000/svg" viewBox="0 0 1200 630" width="1200" height="630">
  <defs>
    <linearGradient id="bg" x1="0%" y1="0%" x2="100%" y2="100%" gradientTransform="rotate(21)">
      <stop offset="0%" stop-color="#0A0820"/>
      <stop offset="55%" stop-color="#1A1A3A"/>
      <stop offset="100%" stop-color="#11103A"/>
    </linearGradient>
    <radialGradient id="glowA" cx="20%" cy="0%" r="60%">
      <stop offset="0%" stop-color="#ED2EBA" stop-opacity="0.45"/>
      <stop offset="100%" stop-color="#ED2EBA" stop-opacity="0"/>
    </radialGradient>
    <radialGradient id="glowB" cx="100%" cy="100%" r="60%">
      <stop offset="0%" stop-color="#8E3DEF" stop-opacity="0.4"/>
      <stop offset="100%" stop-color="#8E3DEF" stop-opacity="0"/>
    </radialGradient>
  </defs>

  <rect width="100%" height="100%" fill="url(#bg)"/>
  <rect width="100%" height="100%" fill="url(#glowA)"/>
  <rect width="100%" height="100%" fill="url(#glowB)"/>

  <!-- Stars -->
  <g fill="#F5EFEF">
    <circle cx="711" cy="621" r="1.05" opacity="0.35"/><circle cx="580" cy="110" r="1.17" opacity="0.29"/><circle cx="226" cy="615" r="1.50" opacity="0.29"/><circle cx="955" cy="64" r="1.40" opacity="0.35"/><circle cx="523" cy="6" r="0.54" opacity="0.69"/><circle cx="766" cy="11" r="1.53" opacity="0.64"/><circle cx="174" cy="383" r="1.02" opacity="0.62"/><circle cx="652" cy="448" r="0.85" opacity="0.46"/><circle cx="271" cy="385" r="0.42" opacity="0.70"/><circle cx="38" cy="78" r="0.83" opacity="0.21"/><circle cx="422" cy="0" r="1.15" opacity="0.74"/><circle cx="606" cy="238" r="0.61" opacity="0.46"/><circle cx="200" cy="319" r="1.19" opacity="0.72"/><circle cx="916" cy="459" r="1.39" opacity="0.42"/><circle cx="153" cy="275" r="1.22" opacity="0.53"/><circle cx="103" cy="434" r="1.19" opacity="0.42"/><circle cx="747" cy="528" r="0.86" opacity="0.60"/><circle cx="1010" cy="385" r="1.53" opacity="0.53"/><circle cx="762" cy="368" r="1.55" opacity="0.31"/><circle cx="239" cy="458" r="1.19" opacity="0.67"/><circle cx="479" cy="59" r="0.65" opacity="0.72"/><circle cx="234" cy="401" r="0.79" opacity="0.54"/><circle cx="1061" cy="484" r="1.59" opacity="0.49"/><circle cx="1078" cy="390" r="1.39" opacity="0.44"/><circle cx="768" cy="517" r="0.75" opacity="0.47"/><circle cx="248" cy="481" r="1.13" opacity="0.27"/><circle cx="766" cy="40" r="0.53" opacity="0.76"/><circle cx="996" cy="627" r="1.18" opacity="0.24"/><circle cx="573" cy="117" r="0.52" opacity="0.77"/><circle cx="864" cy="424" r="0.58" opacity="0.37"/><circle cx="823" cy="238" r="0.42" opacity="0.44"/><circle cx="176" cy="44" r="0.52" opacity="0.76"/><circle cx="459" cy="377" r="1.42" opacity="0.66"/><circle cx="371" cy="31" r="0.84" opacity="0.74"/><circle cx="1125" cy="410" r="0.99" opacity="0.78"/><circle cx="168" cy="523" r="0.69" opacity="0.68"/><circle cx="431" cy="53" r="1.16" opacity="0.24"/><circle cx="1100" cy="131" r="0.82" opacity="0.26"/><circle cx="172" cy="582" r="0.88" opacity="0.75"/><circle cx="621" cy="482" r="0.57" opacity="0.48"/><circle cx="29" cy="521" r="0.65" opacity="0.76"/><circle cx="588" cy="235" r="1.29" opacity="0.72"/><circle cx="977" cy="513" r="1.02" opacity="0.34"/><circle cx="477" cy="597" r="1.50" opacity="0.22"/><circle cx="847" cy="275" r="1.28" opacity="0.61"/><circle cx="1066" cy="196" r="1.32" opacity="0.53"/><circle cx="1013" cy="429" r="0.68" opacity="0.36"/><circle cx="1030" cy="429" r="0.77" opacity="0.62"/><circle cx="421" cy="202" r="0.78" opacity="0.50"/><circle cx="735" cy="614" r="1.47" opacity="0.30"/><circle cx="631" cy="171" r="0.54" opacity="0.45"/><circle cx="34" cy="22" r="1.14" opacity="0.32"/><circle cx="189" cy="369" r="0.98" opacity="0.79"/><circle cx="311" cy="480" r="1.19" opacity="0.69"/><circle cx="535" cy="451" r="0.84" opacity="0.22"/><circle cx="646" cy="369" r="0.52" opacity="0.65"/><circle cx="262" cy="259" r="1.42" opacity="0.61"/><circle cx="841" cy="104" r="0.54" opacity="0.62"/><circle cx="919" cy="106" r="1.06" opacity="0.64"/><circle cx="414" cy="367" r="0.50" opacity="0.59"/>
  </g>

  <!-- Edition label -->
  <text x="60" y="80" font-family="'Geist Mono', ui-monospace, monospace" font-size="20" letter-spacing="4" fill="#C9BCC4" text-transform="uppercase">GYANESH ON PRODUCT · #14</text>

  <!-- Title block -->
  <text x="60" y="297.3333333333333" font-family="'Instrument Serif', 'Iowan Old Style', 'Palatino Linotype', 'Times New Roman', serif" font-style="italic" font-weight="400" font-size="64" fill="#F5EFEF">The Validation Gap: Why Teams</text><text x="60" y="375.3333333333333" font-family="'Instrument Serif', 'Iowan Old Style', 'Palatino Linotype', 'Times New Roman', serif" font-style="italic" font-weight="400" font-size="64" fill="#F5EFEF">Build Features Nobody Can Use</text>

  <!-- Date footer -->
  <text x="60" y="570" font-family="'Geist Mono', ui-monospace, monospace" font-size="20" letter-spacing="4" fill="#828397">JAN 22, 2026</text>

  <!-- Brand mark -->
  <text x="1140" y="570" text-anchor="end" font-family="'Geist Mono', ui-monospace, monospace" font-size="20" letter-spacing="4" fill="#828397">GYANESH.S</text>

  <!-- Bottom-right brand line -->
  <line x1="1000" y1="590" x2="1140" y2="590" stroke="#ED2EBA" stroke-width="2"/>
</svg>