<?xml version="1.0" encoding="UTF-8"?>
<svg xmlns="http://www.w3.org/2000/svg" viewBox="0 0 1200 630" width="1200" height="630">
  <defs>
    <linearGradient id="bg" x1="0%" y1="0%" x2="100%" y2="100%" gradientTransform="rotate(53)">
      <stop offset="0%" stop-color="#0A0820"/>
      <stop offset="55%" stop-color="#1A1A3A"/>
      <stop offset="100%" stop-color="#11103A"/>
    </linearGradient>
    <radialGradient id="glowA" cx="20%" cy="0%" r="60%">
      <stop offset="0%" stop-color="#ED2EBA" stop-opacity="0.45"/>
      <stop offset="100%" stop-color="#ED2EBA" stop-opacity="0"/>
    </radialGradient>
    <radialGradient id="glowB" cx="100%" cy="100%" r="60%">
      <stop offset="0%" stop-color="#8E3DEF" stop-opacity="0.4"/>
      <stop offset="100%" stop-color="#8E3DEF" stop-opacity="0"/>
    </radialGradient>
  </defs>

  <rect width="100%" height="100%" fill="url(#bg)"/>
  <rect width="100%" height="100%" fill="url(#glowA)"/>
  <rect width="100%" height="100%" fill="url(#glowB)"/>

  <!-- Stars -->
  <g fill="#F5EFEF">
    <circle cx="1148" cy="323" r="0.87" opacity="0.61"/><circle cx="222" cy="564" r="0.83" opacity="0.23"/><circle cx="331" cy="591" r="0.70" opacity="0.31"/><circle cx="13" cy="263" r="1.30" opacity="0.44"/><circle cx="658" cy="580" r="0.95" opacity="0.56"/><circle cx="72" cy="309" r="0.41" opacity="0.46"/><circle cx="273" cy="500" r="0.40" opacity="0.67"/><circle cx="639" cy="82" r="0.68" opacity="0.41"/><circle cx="963" cy="582" r="0.95" opacity="0.30"/><circle cx="500" cy="53" r="1.33" opacity="0.34"/><circle cx="1095" cy="280" r="1.04" opacity="0.63"/><circle cx="561" cy="372" r="0.60" opacity="0.56"/><circle cx="998" cy="35" r="1.47" opacity="0.43"/><circle cx="550" cy="207" r="0.93" opacity="0.77"/><circle cx="697" cy="410" r="1.14" opacity="0.42"/><circle cx="309" cy="404" r="0.67" opacity="0.53"/><circle cx="495" cy="316" r="0.63" opacity="0.57"/><circle cx="525" cy="67" r="1.38" opacity="0.68"/><circle cx="997" cy="322" r="0.93" opacity="0.44"/><circle cx="968" cy="368" r="1.15" opacity="0.56"/><circle cx="856" cy="186" r="0.90" opacity="0.48"/><circle cx="133" cy="614" r="1.35" opacity="0.34"/><circle cx="945" cy="289" r="0.79" opacity="0.47"/><circle cx="353" cy="508" r="0.72" opacity="0.64"/><circle cx="134" cy="20" r="1.12" opacity="0.27"/><circle cx="671" cy="397" r="1.08" opacity="0.39"/><circle cx="123" cy="403" r="0.57" opacity="0.47"/><circle cx="649" cy="497" r="0.65" opacity="0.47"/><circle cx="341" cy="148" r="0.81" opacity="0.44"/><circle cx="767" cy="454" r="1.59" opacity="0.38"/><circle cx="926" cy="220" r="0.76" opacity="0.63"/><circle cx="662" cy="576" r="0.53" opacity="0.72"/><circle cx="357" cy="57" r="1.40" opacity="0.33"/><circle cx="416" cy="420" r="1.40" opacity="0.60"/><circle cx="494" cy="142" r="1.20" opacity="0.52"/><circle cx="409" cy="188" r="0.89" opacity="0.71"/><circle cx="184" cy="393" r="0.55" opacity="0.41"/><circle cx="110" cy="242" r="0.91" opacity="0.34"/><circle cx="959" cy="443" r="0.93" opacity="0.31"/><circle cx="230" cy="146" r="1.59" opacity="0.40"/><circle cx="297" cy="609" r="0.43" opacity="0.56"/><circle cx="514" cy="11" r="1.09" opacity="0.21"/><circle cx="613" cy="403" r="1.19" opacity="0.48"/><circle cx="42" cy="175" r="1.35" opacity="0.22"/><circle cx="111" cy="62" r="1.41" opacity="0.31"/><circle cx="926" cy="420" r="0.73" opacity="0.78"/><circle cx="457" cy="37" r="1.02" opacity="0.27"/><circle cx="528" cy="56" r="1.37" opacity="0.59"/><circle cx="487" cy="237" r="1.07" opacity="0.22"/><circle cx="823" cy="524" r="0.62" opacity="0.71"/><circle cx="1032" cy="201" r="1.20" opacity="0.58"/><circle cx="847" cy="144" r="0.83" opacity="0.37"/><circle cx="908" cy="345" r="1.38" opacity="0.59"/><circle cx="168" cy="499" r="0.90" opacity="0.52"/><circle cx="997" cy="132" r="1.06" opacity="0.57"/><circle cx="929" cy="160" r="1.20" opacity="0.70"/><circle cx="554" cy="410" r="1.23" opacity="0.70"/><circle cx="191" cy="604" r="0.42" opacity="0.58"/><circle cx="959" cy="256" r="1.06" opacity="0.25"/><circle cx="1035" cy="514" r="1.48" opacity="0.32"/>
  </g>

  <!-- Edition label -->
  <text x="60" y="80" font-family="'Geist Mono', ui-monospace, monospace" font-size="20" letter-spacing="4" fill="#C9BCC4" text-transform="uppercase">GYANESH ON PRODUCT · #26</text>

  <!-- Title block -->
  <text x="60" y="297.3333333333333" font-family="'Instrument Serif', 'Iowan Old Style', 'Palatino Linotype', 'Times New Roman', serif" font-style="italic" font-weight="400" font-size="64" fill="#F5EFEF">The Dark Side of Data: Common</text><text x="60" y="375.3333333333333" font-family="'Instrument Serif', 'Iowan Old Style', 'Palatino Linotype', 'Times New Roman', serif" font-style="italic" font-weight="400" font-size="64" fill="#F5EFEF">Pitfalls in Product Analytics</text>

  <!-- Date footer -->
  <text x="60" y="570" font-family="'Geist Mono', ui-monospace, monospace" font-size="20" letter-spacing="4" fill="#828397">MAR 16, 2025</text>

  <!-- Brand mark -->
  <text x="1140" y="570" text-anchor="end" font-family="'Geist Mono', ui-monospace, monospace" font-size="20" letter-spacing="4" fill="#828397">GYANESH.S</text>

  <!-- Bottom-right brand line -->
  <line x1="1000" y1="590" x2="1140" y2="590" stroke="#ED2EBA" stroke-width="2"/>
</svg>